<svg width="31" height="17" viewBox="0 0 31 17" fill="none" xmlns="http://www.w3.org/2000/svg">
<path d="M15.0697 0.000294586C17.9671 -0.0131939 20.4077 0.436596 22.7227 1.3354C24.4334 1.99958 25.9923 2.84754 27.3924 3.88486C28.6637 4.82672 29.7449 5.89607 30.6415 7.08696C30.8802 7.40407 31.0151 7.74919 30.9986 8.12596C30.9838 8.46681 30.847 8.77782 30.6302 9.06549C29.7908 10.1791 28.7918 11.1894 27.6217 12.087C26.0873 13.2643 24.3537 14.2032 22.4324 14.915C21.2707 15.3454 20.0641 15.6657 18.8116 15.8707C17.4222 16.0981 16.0199 16.1783 14.6042 16.1179C13.3135 16.0628 12.0486 15.8877 10.8096 15.5915C9.75226 15.3387 8.73543 15.0034 7.75735 14.5914C5.8369 13.7825 4.12073 12.753 2.6364 11.4744C1.77167 10.7294 1.01086 9.91941 0.355868 9.04551C0.116351 8.72594 -0.0176566 8.37848 0.00187621 7.99938C0.0191675 7.66333 0.154136 7.35634 0.368836 7.07282C1.59876 5.44888 3.15386 4.06436 5.04005 2.92497C6.48996 2.04912 8.05371 1.34033 9.75162 0.829968C10.7982 0.515323 11.8736 0.28939 12.9768 0.1523C13.7789 0.0525626 14.5865 0.00146186 15.0697 0.000294586ZM8.78939 3.13223C8.77066 3.13871 8.75897 3.14208 8.74792 3.14675C7.51672 3.66113 6.38734 4.29483 5.35754 5.045C4.15676 5.91981 3.13673 6.91848 2.25647 8.01312C2.22429 8.0532 2.22189 8.07966 2.25519 8.1209C3.35671 9.48324 4.68158 10.6809 6.26886 11.6838C7.4341 12.4201 8.68756 13.0363 10.0584 13.4909C11.3237 13.9105 12.637 14.1731 13.9965 14.2846C14.7458 14.3461 15.497 14.3579 16.2495 14.329C17.3207 14.2878 18.3729 14.1518 19.4059 13.9185C21.3422 13.4812 23.0738 12.7206 24.6582 11.7301C26.278 10.7176 27.627 9.50322 28.7466 8.1187C28.7786 8.07914 28.7753 8.05359 28.745 8.01585C28.1193 7.23792 27.4214 6.50591 26.6343 5.83019C25.3646 4.74008 23.9138 3.84362 22.2696 3.15414C22.2534 3.1474 22.2355 3.14338 22.2041 3.13365C23.1606 4.48108 23.4455 5.91164 23.1271 7.423C22.8053 8.94967 21.8195 10.1578 20.3815 11.1495C17.7926 12.9347 13.8192 12.9798 11.219 11.513C9.77771 10.7001 8.685 9.65302 8.14305 8.28536C7.4365 6.50241 7.65441 4.77964 8.78907 3.13223H8.78939ZM15.3074 2.0119C14.7496 2.03395 14.2065 2.11229 13.6822 2.26896C12.9574 2.48555 12.3344 2.8286 11.7904 3.26932C10.7601 4.10392 10.2326 5.10816 10.2435 6.29152C10.2479 6.77711 10.8888 7.09746 11.427 6.88333C11.7395 6.75895 11.8906 6.54793 11.9049 6.26519C11.9143 6.08025 11.9281 5.89374 11.9671 5.71178C12.0936 5.12295 12.4449 4.62854 12.9651 4.20962C13.5839 3.71132 14.3233 3.42288 15.1977 3.37139C15.3596 3.36179 15.525 3.36763 15.6832 3.34285C16.073 3.2819 16.3393 2.99319 16.3273 2.66441C16.3154 2.33977 16.0284 2.07299 15.6337 2.02656C15.5263 2.01398 15.4161 2.01631 15.3073 2.01177L15.3074 2.0119Z" fill="white"/>
</svg>
