<svg width="11" height="14" viewBox="0 0 11 14" fill="none" xmlns="http://www.w3.org/2000/svg">
<path d="M5.23573 14C5.21681 13.9774 5.20178 13.9611 5.18861 13.9433C3.8546 12.16 2.59257 10.3373 1.50343 8.42139C1.02648 7.58245 0.587003 6.72812 0.281836 5.82298C0.115433 5.32954 0.017297 4.82908 0.0681271 4.31024C0.176095 3.20652 0.643398 2.24655 1.49341 1.44538C2.30057 0.684661 3.28805 0.223315 4.44137 0.0571635C6.60221 -0.254078 8.77974 0.727285 9.80673 2.47355C10.2484 3.22457 10.4607 4.0249 10.4032 4.87605C10.3751 5.28926 10.2453 5.68525 10.1002 6.07589C9.79226 6.90564 9.38266 7.69595 8.9391 8.47204C7.85404 10.3709 6.60202 12.1795 5.2784 13.949C5.2669 13.9646 5.25354 13.9789 5.23573 13.9998V14ZM5.23722 7.00259C6.67029 7.00175 7.83011 5.9557 7.82714 4.66644C7.82417 3.37885 6.66825 2.33915 5.23852 2.33765C3.80563 2.33631 2.64488 3.37952 2.64432 4.66945C2.64377 5.95888 3.8047 7.00343 5.2374 7.00259H5.23722Z" fill="#2D0202"/>
</svg>
