<svg width="21" height="14" viewBox="0 0 21 14" fill="none" xmlns="http://www.w3.org/2000/svg">
<g clip-path="url(#clip0_1_84)">
<path d="M10.0708 14.0002C7.13055 14.0002 4.18995 14.0005 1.24974 13.9998C0.674778 13.9998 0.244341 13.7299 0.075789 13.2527C0.0281377 13.1181 0.00490273 12.9687 0.00450892 12.8261C0.00135842 9.22435 0.00253986 5.62219 0.00332748 2.02041C0.00332748 1.74711 0.00135842 1.47418 0.00332748 1.20088C0.00962849 0.47244 0.490867 0.00892409 1.24856 0.00816172C2.79743 0.00587464 4.34629 0.00739936 5.89555 0.00739936C10.2141 0.00739936 14.533 0.0154042 18.8516 0.000538113C19.7034 -0.00251133 20.1823 0.591749 20.1776 1.28664C20.1543 4.64713 20.1681 8.00762 20.1685 11.3681C20.1685 11.8446 20.1685 12.3211 20.1665 12.7975C20.1642 13.534 19.6778 14.0002 18.9115 14.0005C16.9097 14.0005 14.908 14.0005 12.9058 14.0005C11.9607 14.0005 11.0155 14.0005 10.0704 14.0005L10.0708 14.0002ZM10.0436 8.76617C12.5427 6.3491 15.0348 3.9389 17.513 1.54241H2.58359C5.08509 3.96482 7.57989 6.38074 10.0436 8.76617ZM2.13307 12.4221C2.13937 12.4331 2.14567 12.4446 2.15197 12.4556H18.077C16.1225 11.2343 14.216 10.0431 12.3045 8.84888C12.2446 8.90377 12.1966 8.94608 12.1509 8.9903C11.7515 9.37606 11.3526 9.76257 10.9529 10.1483C10.4449 10.6385 9.72814 10.6404 9.22445 10.1537C8.83418 9.77668 8.44312 9.40083 8.0564 9.02041C7.99733 8.96247 7.96149 8.88243 7.9166 8.81534C5.94793 10.0431 4.0403 11.2328 2.13267 12.4221H2.13307ZM18.5791 11.8522V2.79993C16.6833 4.63379 14.7918 6.46345 12.8928 8.30036C14.7792 9.47859 16.6699 10.6599 18.5791 11.8522ZM1.58764 2.79535V11.845C3.49999 10.6522 5.39226 9.47173 7.27271 8.29922C5.37611 6.46307 3.48502 4.63188 1.58764 2.79535Z" fill="#2D0202"/>
</g>
<defs>
<clipPath id="clip0_1_84">
<rect width="20.175" height="14" fill="white" transform="translate(0.00244141)"/>
</clipPath>
</defs>
</svg>
