<svg width="16" height="14" viewBox="0 0 16 14" fill="none" xmlns="http://www.w3.org/2000/svg">
<g clip-path="url(#clip0_1_67)">
<path d="M0.985316 2.75625C1.08501 2.415 1.31702 2.16519 1.57441 1.92369C2.18027 1.3545 2.7739 0.773065 3.37296 0.196878C3.63262 -0.0529347 3.7373 -0.0363097 3.91085 0.27869C4.44602 1.24907 4.9821 2.219 5.51636 3.18982C5.71575 3.55207 5.69309 3.69819 5.39764 3.98388C5.18964 4.18513 4.98255 4.38725 4.77274 4.58632C4.49315 4.85188 4.40796 5.16119 4.52668 5.52475C4.74827 6.20332 5.13889 6.79088 5.59702 7.33644C6.54411 8.46344 7.59768 9.48238 8.91136 10.2148C9.20183 10.3766 9.52719 10.4869 9.8453 10.5958C10.177 10.7087 10.4702 10.6041 10.7149 10.3736C11.0067 10.0988 11.2909 9.81663 11.5822 9.541C11.7748 9.359 11.9751 9.324 12.199 9.45044C13.2476 10.0419 14.293 10.6391 15.3393 11.235C15.39 11.2639 15.4367 11.2989 15.4857 11.3308V11.5496C14.8286 12.1778 14.167 12.8017 13.5172 13.4369C13.2707 13.678 13.0192 13.8989 12.6761 13.9996H12.0417C12.0145 13.9882 11.9887 13.9703 11.9606 13.9672C10.7937 13.8355 9.72703 13.4238 8.7156 12.8686C6.67189 11.7473 4.99025 10.2213 3.51797 8.47088C2.565 7.33819 1.77244 6.10925 1.32246 4.70444C1.16975 4.22757 1.09498 3.72707 0.984863 3.2375V2.75625H0.985316Z" fill="#2D0202"/>
<path d="M7.96399 0C8.42847 0.0879375 8.90835 0.129062 9.35425 0.270812C12.5281 1.27837 14.5102 3.33987 15.1976 6.51919C15.2466 6.74581 15.2488 6.98206 15.2701 7.21437C15.2756 7.27125 15.271 7.329 15.271 7.42219C14.9466 7.42219 14.6334 7.42744 14.3212 7.41475C14.2863 7.41344 14.2329 7.31325 14.2265 7.25506C14.0172 5.22331 13.0751 3.58181 11.3975 2.34412C10.3281 1.55531 9.1091 1.12087 7.76823 1.00669C7.70977 1.00187 7.65131 0.993562 7.55615 0.983062V0C7.6921 0 7.82804 0 7.96399 0Z" fill="#2D0202"/>
<path d="M12.8699 7.413H11.8525C11.4361 5.06494 10.0168 3.6925 7.57617 3.30094V2.3135C8.88849 2.41106 10.0241 2.8735 10.9852 3.71569C12.1104 4.70137 12.7335 5.9325 12.8703 7.413H12.8699Z" fill="#2D0202"/>
<path d="M10.4339 7.4235C10.1715 7.4235 9.91008 7.42919 9.64951 7.41781C9.60692 7.41606 9.54801 7.34256 9.53079 7.29138C9.22854 6.40631 8.61996 5.82006 7.70641 5.52256C7.65067 5.50419 7.5759 5.43638 7.57273 5.38781C7.55913 5.15025 7.56638 4.91138 7.56638 4.6725C8.91813 4.73725 10.3075 5.95963 10.4339 7.4235Z" fill="#2D0202"/>
</g>
<defs>
<clipPath id="clip0_1_67">
<rect width="14.5008" height="14" fill="white" transform="translate(0.985352)"/>
</clipPath>
</defs>
</svg>
